<mxfile host="app.diagrams.net" agent="Mozilla/5.0 (Macintosh; Intel Mac OS X 10_15_7) AppleWebKit/537.36 (KHTML, like Gecko) Chrome/131.0.0.0 Safari/537.36" version="24.8.3">
  <diagram name="Page-1" id="MbGolvoH-IdNrHG9Tqil">
    <mxGraphModel dx="1026" dy="650" grid="1" gridSize="10" guides="1" tooltips="1" connect="1" arrows="1" fold="1" page="1" pageScale="1" pageWidth="850" pageHeight="1100" math="0" shadow="0">
      <root>
        <mxCell id="0" />
        <mxCell id="1" parent="0" />
        <mxCell id="1k-BWJfdxa_rGLHRsejH-1" value="" style="sketch=0;aspect=fixed;pointerEvents=1;shadow=0;dashed=0;html=1;strokeColor=none;labelPosition=center;verticalLabelPosition=bottom;verticalAlign=top;align=center;fillColor=#00188D;shape=mxgraph.azure.laptop" vertex="1" parent="1">
          <mxGeometry x="130" y="160" width="50" height="30" as="geometry" />
        </mxCell>
        <mxCell id="1k-BWJfdxa_rGLHRsejH-2" value="" style="sketch=0;aspect=fixed;pointerEvents=1;shadow=0;dashed=0;html=1;strokeColor=none;labelPosition=center;verticalLabelPosition=bottom;verticalAlign=top;align=center;fillColor=#00188D;shape=mxgraph.azure.laptop" vertex="1" parent="1">
          <mxGeometry x="130" y="380" width="50" height="30" as="geometry" />
        </mxCell>
        <mxCell id="1k-BWJfdxa_rGLHRsejH-14" style="edgeStyle=orthogonalEdgeStyle;rounded=0;orthogonalLoop=1;jettySize=auto;html=1;exitX=1;exitY=0.25;exitDx=0;exitDy=0;" edge="1" parent="1" source="1k-BWJfdxa_rGLHRsejH-3" target="1k-BWJfdxa_rGLHRsejH-4">
          <mxGeometry relative="1" as="geometry">
            <Array as="points">
              <mxPoint x="290" y="175" />
            </Array>
          </mxGeometry>
        </mxCell>
        <mxCell id="1k-BWJfdxa_rGLHRsejH-15" style="edgeStyle=orthogonalEdgeStyle;rounded=0;orthogonalLoop=1;jettySize=auto;html=1;exitX=1;exitY=0.75;exitDx=0;exitDy=0;" edge="1" parent="1" source="1k-BWJfdxa_rGLHRsejH-3" target="1k-BWJfdxa_rGLHRsejH-5">
          <mxGeometry relative="1" as="geometry" />
        </mxCell>
        <mxCell id="1k-BWJfdxa_rGLHRsejH-3" value="API Gateway + Load Balancer" style="rounded=0;whiteSpace=wrap;html=1;" vertex="1" parent="1">
          <mxGeometry x="220" y="100" width="70" height="380" as="geometry" />
        </mxCell>
        <mxCell id="1k-BWJfdxa_rGLHRsejH-26" style="edgeStyle=orthogonalEdgeStyle;rounded=0;orthogonalLoop=1;jettySize=auto;html=1;entryX=0;entryY=0.5;entryDx=0;entryDy=0;entryPerimeter=0;exitX=0.5;exitY=1;exitDx=0;exitDy=0;" edge="1" parent="1" source="1k-BWJfdxa_rGLHRsejH-4" target="1k-BWJfdxa_rGLHRsejH-8">
          <mxGeometry relative="1" as="geometry" />
        </mxCell>
        <mxCell id="1k-BWJfdxa_rGLHRsejH-4" value="Chat Service" style="rounded=1;whiteSpace=wrap;html=1;" vertex="1" parent="1">
          <mxGeometry x="390" y="145" width="120" height="60" as="geometry" />
        </mxCell>
        <mxCell id="1k-BWJfdxa_rGLHRsejH-5" value="User Service" style="rounded=1;whiteSpace=wrap;html=1;" vertex="1" parent="1">
          <mxGeometry x="380" y="480" width="120" height="60" as="geometry" />
        </mxCell>
        <mxCell id="1k-BWJfdxa_rGLHRsejH-6" value="" style="shape=cylinder3;whiteSpace=wrap;html=1;boundedLbl=1;backgroundOutline=1;size=15;rotation=-90;" vertex="1" parent="1">
          <mxGeometry x="660" y="95" width="40" height="160" as="geometry" />
        </mxCell>
        <mxCell id="1k-BWJfdxa_rGLHRsejH-7" value="Messages" style="shape=cylinder3;whiteSpace=wrap;html=1;boundedLbl=1;backgroundOutline=1;size=15;" vertex="1" parent="1">
          <mxGeometry x="510" y="235" width="70" height="80" as="geometry" />
        </mxCell>
        <mxCell id="1k-BWJfdxa_rGLHRsejH-8" value="" style="outlineConnect=0;dashed=0;verticalLabelPosition=bottom;verticalAlign=top;align=center;html=1;shape=mxgraph.aws3.cache_node;fillColor=#2E73B8;gradientColor=none;" vertex="1" parent="1">
          <mxGeometry x="515" y="337" width="60" height="63" as="geometry" />
        </mxCell>
        <mxCell id="1k-BWJfdxa_rGLHRsejH-9" value="Users" style="shape=cylinder3;whiteSpace=wrap;html=1;boundedLbl=1;backgroundOutline=1;size=15;" vertex="1" parent="1">
          <mxGeometry x="550" y="530" width="60" height="80" as="geometry" />
        </mxCell>
        <mxCell id="1k-BWJfdxa_rGLHRsejH-10" value="Contacts" style="shape=cylinder3;whiteSpace=wrap;html=1;boundedLbl=1;backgroundOutline=1;size=15;" vertex="1" parent="1">
          <mxGeometry x="550" y="430" width="60" height="80" as="geometry" />
        </mxCell>
        <mxCell id="1k-BWJfdxa_rGLHRsejH-21" style="edgeStyle=orthogonalEdgeStyle;rounded=0;orthogonalLoop=1;jettySize=auto;html=1;entryX=1;entryY=0.5;entryDx=0;entryDy=0;entryPerimeter=0;" edge="1" parent="1" source="1k-BWJfdxa_rGLHRsejH-11" target="1k-BWJfdxa_rGLHRsejH-8">
          <mxGeometry relative="1" as="geometry">
            <Array as="points">
              <mxPoint x="770" y="369" />
              <mxPoint x="660" y="369" />
            </Array>
          </mxGeometry>
        </mxCell>
        <mxCell id="1k-BWJfdxa_rGLHRsejH-11" value="Message consumer" style="rounded=1;whiteSpace=wrap;html=1;" vertex="1" parent="1">
          <mxGeometry x="710" y="255" width="120" height="60" as="geometry" />
        </mxCell>
        <mxCell id="1k-BWJfdxa_rGLHRsejH-12" style="edgeStyle=orthogonalEdgeStyle;rounded=0;orthogonalLoop=1;jettySize=auto;html=1;entryX=0;entryY=0.195;entryDx=0;entryDy=0;entryPerimeter=0;" edge="1" parent="1" source="1k-BWJfdxa_rGLHRsejH-1" target="1k-BWJfdxa_rGLHRsejH-3">
          <mxGeometry relative="1" as="geometry" />
        </mxCell>
        <mxCell id="1k-BWJfdxa_rGLHRsejH-13" style="edgeStyle=orthogonalEdgeStyle;rounded=0;orthogonalLoop=1;jettySize=auto;html=1;entryX=0.014;entryY=0.776;entryDx=0;entryDy=0;entryPerimeter=0;" edge="1" parent="1" source="1k-BWJfdxa_rGLHRsejH-2" target="1k-BWJfdxa_rGLHRsejH-3">
          <mxGeometry relative="1" as="geometry" />
        </mxCell>
        <mxCell id="1k-BWJfdxa_rGLHRsejH-16" style="edgeStyle=orthogonalEdgeStyle;rounded=0;orthogonalLoop=1;jettySize=auto;html=1;entryX=0.5;entryY=0;entryDx=0;entryDy=0;entryPerimeter=0;" edge="1" parent="1" source="1k-BWJfdxa_rGLHRsejH-4" target="1k-BWJfdxa_rGLHRsejH-6">
          <mxGeometry relative="1" as="geometry" />
        </mxCell>
        <mxCell id="1k-BWJfdxa_rGLHRsejH-17" style="edgeStyle=orthogonalEdgeStyle;rounded=0;orthogonalLoop=1;jettySize=auto;html=1;entryX=0.592;entryY=0.017;entryDx=0;entryDy=0;entryPerimeter=0;exitX=0.5;exitY=1;exitDx=0;exitDy=0;exitPerimeter=0;" edge="1" parent="1" source="1k-BWJfdxa_rGLHRsejH-6" target="1k-BWJfdxa_rGLHRsejH-11">
          <mxGeometry relative="1" as="geometry" />
        </mxCell>
        <mxCell id="1k-BWJfdxa_rGLHRsejH-20" style="edgeStyle=orthogonalEdgeStyle;rounded=0;orthogonalLoop=1;jettySize=auto;html=1;entryX=1;entryY=0.5;entryDx=0;entryDy=0;entryPerimeter=0;" edge="1" parent="1" source="1k-BWJfdxa_rGLHRsejH-11" target="1k-BWJfdxa_rGLHRsejH-7">
          <mxGeometry relative="1" as="geometry">
            <Array as="points">
              <mxPoint x="680" y="275" />
              <mxPoint x="680" y="275" />
            </Array>
          </mxGeometry>
        </mxCell>
        <mxCell id="1k-BWJfdxa_rGLHRsejH-22" style="edgeStyle=orthogonalEdgeStyle;rounded=0;orthogonalLoop=1;jettySize=auto;html=1;entryX=0;entryY=0.5;entryDx=0;entryDy=0;entryPerimeter=0;" edge="1" parent="1" source="1k-BWJfdxa_rGLHRsejH-5" target="1k-BWJfdxa_rGLHRsejH-10">
          <mxGeometry relative="1" as="geometry" />
        </mxCell>
        <mxCell id="1k-BWJfdxa_rGLHRsejH-23" style="edgeStyle=orthogonalEdgeStyle;rounded=0;orthogonalLoop=1;jettySize=auto;html=1;entryX=0;entryY=0;entryDx=0;entryDy=52.5;entryPerimeter=0;" edge="1" parent="1" source="1k-BWJfdxa_rGLHRsejH-5" target="1k-BWJfdxa_rGLHRsejH-9">
          <mxGeometry relative="1" as="geometry" />
        </mxCell>
        <mxCell id="1k-BWJfdxa_rGLHRsejH-25" style="edgeStyle=orthogonalEdgeStyle;rounded=0;orthogonalLoop=1;jettySize=auto;html=1;entryX=0;entryY=0;entryDx=0;entryDy=52.5;entryPerimeter=0;" edge="1" parent="1" source="1k-BWJfdxa_rGLHRsejH-4" target="1k-BWJfdxa_rGLHRsejH-7">
          <mxGeometry relative="1" as="geometry" />
        </mxCell>
        <mxCell id="1k-BWJfdxa_rGLHRsejH-27" value="Message queue" style="text;html=1;align=center;verticalAlign=middle;whiteSpace=wrap;rounded=0;" vertex="1" parent="1">
          <mxGeometry x="660" y="160" width="60" height="30" as="geometry" />
        </mxCell>
      </root>
    </mxGraphModel>
  </diagram>
</mxfile>
